<?xml version="1.0" encoding="utf-8"?>
<!-- Generator: Adobe Illustrator 17.1.0, SVG Export Plug-In . SVG Version: 6.00 Build 0)  -->
<!DOCTYPE svg PUBLIC "-//W3C//DTD SVG 1.1//EN" "http://www.w3.org/Graphics/SVG/1.1/DTD/svg11.dtd">
<svg version="1.1" id="Layer_1" xmlns="http://www.w3.org/2000/svg" xmlns:xlink="http://www.w3.org/1999/xlink" x="0px" y="0px"
	 viewBox="0 0 32 32" enable-background="new 0 0 32 32" xml:space="preserve">
<path fill="#444444" d="M22.7,9.3c0,0.4-0.1,0.7-0.4,1c-0.3,0.3-0.6,0.4-1,0.4H10.7c-0.4,0-0.7-0.1-1-0.4c-0.3-0.3-0.4-0.6-0.4-1v-8
	c0-0.4,0.1-0.7,0.4-0.9C10,0.1,10.3,0,10.7,0l10.6,0c0.4,0,0.7,0.1,1,0.4c0.3,0.2,0.4,0.6,0.4,0.9V9.3z M30.7,30.7
	c0,0.4-0.1,0.7-0.4,0.9s-0.6,0.4-1,0.4H24c-0.4,0-0.7-0.1-0.9-0.4s-0.4-0.6-0.4-0.9v-5.4c0-0.4,0.1-0.7,0.4-0.9S23.6,24,24,24h5.3
	c0.4,0,0.7,0.1,1,0.4c0.3,0.3,0.4,0.6,0.4,0.9C30.7,25.3,30.7,30.7,30.7,30.7z M20,30.7c0,0.4-0.1,0.7-0.4,0.9S19.1,32,18.7,32h-5.4
	c-0.4,0-0.7-0.1-0.9-0.4S12,31.1,12,30.7v-5.4c0-0.4,0.1-0.7,0.4-0.9s0.6-0.4,0.9-0.4h5.4c0.4,0,0.7,0.1,0.9,0.4s0.4,0.6,0.4,0.9
	V30.7z M9.3,30.7c0,0.4-0.1,0.7-0.4,0.9C8.7,31.9,8.4,32,8,32H2.7c-0.4,0-0.7-0.1-1-0.4c-0.3-0.3-0.4-0.6-0.4-0.9v-5.4
	c0-0.4,0.1-0.7,0.4-0.9C2,24.1,2.3,24,2.7,24H8c0.4,0,0.7,0.1,0.9,0.4c0.3,0.3,0.4,0.6,0.4,0.9V30.7z M28,16v6.7h-2.7v-4h-8v4h-2.6
	v-4h-8v4H4V16h10.7v-4h2.6v4H28z"/>
</svg>
